<svg width="350" height="346" viewBox="0 0 350 346" fill="none" xmlns="http://www.w3.org/2000/svg">
<ellipse cx="175" cy="173" rx="175" ry="173" fill="#40FF93"/>
<g clip-path="url(#clip0_878_102301)">
<path d="M76.072 204.078L82.1957 167.192H98.1891C100.999 167.192 103.298 167.571 105.087 168.327C106.888 169.083 108.161 170.152 108.905 171.533C109.662 172.914 109.884 174.541 109.572 176.414C109.332 177.759 108.815 178.989 108.023 180.106C107.242 181.211 106.252 182.147 105.051 182.916C103.862 183.672 102.536 184.194 101.071 184.483L100.999 184.843C102.584 184.891 103.965 185.287 105.141 186.032C106.318 186.764 107.182 187.785 107.735 189.093C108.287 190.39 108.419 191.903 108.131 193.632C107.795 195.649 106.972 197.444 105.664 199.017C104.355 200.59 102.656 201.827 100.567 202.727C98.4773 203.628 96.0999 204.078 93.4343 204.078H76.072ZM87.4548 196.081H92.1375C93.7945 196.081 95.0973 195.763 96.0458 195.127C97.0064 194.491 97.5768 193.56 97.7569 192.335C97.9009 191.471 97.8289 190.738 97.5407 190.138C97.2526 189.538 96.7663 189.081 96.0819 188.769C95.3975 188.457 94.539 188.301 93.5063 188.301H88.6795L87.4548 196.081ZM89.7601 182.105H93.8666C94.7311 182.105 95.5235 181.967 96.244 181.691C96.9644 181.415 97.5587 181.013 98.027 180.484C98.4953 179.956 98.7895 179.32 98.9095 178.575C99.0896 177.422 98.8135 176.546 98.0811 175.946C97.3606 175.345 96.388 175.045 95.1633 175.045H90.9128L89.7601 182.105ZM136.73 167.192H146.744L142.818 190.822C142.361 193.632 141.293 196.063 139.612 198.117C137.943 200.158 135.817 201.737 133.236 202.853C130.654 203.958 127.785 204.51 124.627 204.51C121.445 204.51 118.755 203.958 116.558 202.853C114.361 201.737 112.764 200.158 111.767 198.117C110.783 196.063 110.518 193.632 110.975 190.822L114.901 167.192H124.915L121.133 189.958C120.953 191.098 121.043 192.113 121.403 193.002C121.763 193.89 122.345 194.593 123.15 195.109C123.954 195.613 124.927 195.865 126.068 195.865C127.22 195.865 128.283 195.613 129.255 195.109C130.24 194.593 131.057 193.89 131.705 193.002C132.353 192.113 132.768 191.098 132.948 189.958L136.73 167.192ZM182.245 167.192L176.122 204.078H167.765L157.679 184.699H157.463L154.221 204.078H144.207L150.33 167.192H158.831L168.773 186.5H169.062L172.231 167.192H182.245ZM194.094 204.078H179.686L185.809 167.192H199.642C203.436 167.192 206.606 167.955 209.151 169.48C211.697 171.005 213.504 173.184 214.572 176.018C215.641 178.851 215.851 182.225 215.203 186.14C214.578 189.91 213.312 193.134 211.403 195.811C209.505 198.489 207.08 200.536 204.126 201.953C201.185 203.37 197.841 204.078 194.094 204.078ZM191.105 195.577H194.743C196.568 195.577 198.195 195.259 199.624 194.623C201.064 193.974 202.265 192.894 203.226 191.381C204.198 189.856 204.901 187.773 205.333 185.131C205.741 182.633 205.729 180.706 205.297 179.35C204.865 177.981 204.042 177.032 202.83 176.504C201.617 175.964 200.05 175.693 198.129 175.693H194.419L191.105 195.577ZM215.71 204.078L221.833 167.192H231.847L227.092 196.009H242.005L240.636 204.078H215.71ZM243.512 204.078L249.635 167.192H276.219L274.85 175.261H258.28L257.272 181.601H272.473L271.104 189.67H255.903L254.894 196.009H271.392L270.023 204.078H243.512Z" fill="black"/>
<path d="M118.106 131.919C118.214 130.73 117.926 129.8 117.241 129.128C116.557 128.443 115.404 128.101 113.783 128.101C112.751 128.101 111.886 128.221 111.19 128.461C110.505 128.701 109.971 129.031 109.587 129.452C109.215 129.872 108.981 130.358 108.884 130.911C108.776 131.343 108.782 131.739 108.903 132.099C109.035 132.447 109.281 132.766 109.641 133.054C110.013 133.342 110.499 133.6 111.1 133.828C111.712 134.056 112.439 134.261 113.279 134.441L116.161 135.089C118.13 135.521 119.781 136.092 121.114 136.8C122.459 137.496 123.515 138.325 124.284 139.286C125.052 140.246 125.556 141.321 125.796 142.509C126.049 143.698 126.055 144.995 125.815 146.4C125.406 148.825 124.464 150.878 122.987 152.559C121.51 154.24 119.583 155.519 117.205 156.396C114.828 157.272 112.078 157.71 108.957 157.71C105.763 157.71 103.049 157.236 100.816 156.288C98.5944 155.327 96.9855 153.862 95.9889 151.893C95.0043 149.912 94.7641 147.384 95.2684 144.311H104.778C104.634 145.439 104.754 146.388 105.138 147.156C105.523 147.925 106.141 148.507 106.993 148.903C107.846 149.299 108.909 149.498 110.181 149.498C111.262 149.498 112.186 149.365 112.955 149.101C113.723 148.837 114.33 148.471 114.774 148.003C115.218 147.534 115.488 147 115.584 146.4C115.681 145.847 115.584 145.355 115.296 144.923C115.008 144.491 114.486 144.1 113.729 143.752C112.973 143.404 111.934 143.086 110.614 142.798L107.083 142.005C103.95 141.285 101.584 140.096 99.9872 138.439C98.3903 136.782 97.826 134.513 98.2942 131.631C98.6785 129.278 99.645 127.224 101.194 125.471C102.755 123.706 104.736 122.338 107.137 121.365C109.551 120.38 112.222 119.888 115.152 119.888C118.13 119.888 120.621 120.386 122.627 121.383C124.644 122.38 126.091 123.778 126.967 125.579C127.856 127.38 128.096 129.494 127.688 131.919H118.106ZM154.603 120.392H164.616L160.69 144.022C160.234 146.832 159.165 149.263 157.484 151.317C155.815 153.358 153.69 154.937 151.108 156.053C148.527 157.158 145.657 157.71 142.499 157.71C139.318 157.71 136.628 157.158 134.431 156.053C132.233 154.937 130.636 153.358 129.64 151.317C128.655 149.263 128.391 146.832 128.847 144.022L132.774 120.392H142.788L139.005 143.158C138.825 144.298 138.915 145.313 139.275 146.202C139.636 147.09 140.218 147.793 141.023 148.309C141.827 148.813 142.8 149.065 143.94 149.065C145.093 149.065 146.156 148.813 147.128 148.309C148.113 147.793 148.929 147.09 149.578 146.202C150.226 145.313 150.64 144.298 150.82 143.158L154.603 120.392ZM162.079 157.278L168.203 120.392H184.125C186.862 120.392 189.167 120.933 191.041 122.013C192.914 123.094 194.259 124.613 195.075 126.57C195.891 128.527 196.084 130.815 195.651 133.432C195.219 136.098 194.259 138.397 192.77 140.33C191.293 142.251 189.408 143.734 187.114 144.779C184.833 145.811 182.275 146.328 179.442 146.328H169.932L171.229 138.547H178.721C179.922 138.547 180.979 138.343 181.891 137.935C182.804 137.514 183.542 136.926 184.107 136.17C184.671 135.401 185.037 134.489 185.205 133.432C185.373 132.375 185.295 131.475 184.971 130.73C184.659 129.974 184.119 129.398 183.35 129.001C182.594 128.593 181.627 128.389 180.45 128.389H176.92L172.093 157.278H162.079ZM194.19 157.278L200.314 120.392H226.898L225.529 128.461H208.959L207.951 134.801H223.152L221.783 142.87H206.582L205.573 149.209H222.071L220.702 157.278H194.19ZM224.568 157.278L230.692 120.392H246.613C249.351 120.392 251.662 120.891 253.547 121.887C255.432 122.884 256.789 124.319 257.617 126.192C258.446 128.065 258.644 130.31 258.212 132.928C257.78 135.569 256.825 137.797 255.348 139.61C253.883 141.411 252.016 142.78 249.747 143.716C247.49 144.641 244.956 145.103 242.146 145.103H232.637L233.933 137.322H241.426C242.603 137.322 243.635 137.178 244.524 136.89C245.412 136.59 246.133 136.122 246.685 135.485C247.237 134.837 247.598 133.984 247.766 132.928C247.934 131.871 247.85 131.013 247.514 130.352C247.177 129.68 246.619 129.188 245.839 128.875C245.058 128.551 244.091 128.389 242.939 128.389H239.409L234.582 157.278H224.568ZM248.99 140.348L255.402 157.278H244.524L238.328 140.348H248.99Z" fill="black"/>
</g>
<g clip-path="url(#clip1_878_102301)">
<rect x="107" y="228.278" width="136" height="43" rx="21.5" fill="black"/>
<path d="M135.129 253.003C135.129 253.934 134.9 254.736 134.441 255.409C133.99 256.082 133.339 256.598 132.486 256.956C131.641 257.314 130.632 257.493 129.457 257.493C128.884 257.493 128.336 257.461 127.813 257.396C127.291 257.332 126.797 257.239 126.331 257.117C125.873 256.988 125.454 256.834 125.074 256.655V254.227C125.712 254.507 126.424 254.761 127.212 254.99C128 255.212 128.802 255.323 129.618 255.323C130.284 255.323 130.836 255.237 131.272 255.065C131.716 254.886 132.046 254.636 132.261 254.313C132.476 253.984 132.583 253.601 132.583 253.164C132.583 252.698 132.458 252.305 132.207 251.982C131.956 251.66 131.577 251.366 131.068 251.101C130.567 250.829 129.937 250.539 129.178 250.231C128.662 250.024 128.168 249.787 127.695 249.522C127.23 249.257 126.814 248.946 126.449 248.588C126.084 248.23 125.794 247.807 125.579 247.32C125.371 246.826 125.268 246.246 125.268 245.58C125.268 244.692 125.479 243.933 125.901 243.303C126.331 242.672 126.933 242.189 127.706 241.852C128.487 241.516 129.396 241.348 130.435 241.348C131.258 241.348 132.032 241.433 132.755 241.605C133.485 241.777 134.201 242.021 134.903 242.336L134.087 244.409C133.442 244.144 132.816 243.933 132.207 243.775C131.605 243.618 130.99 243.539 130.359 243.539C129.815 243.539 129.353 243.621 128.974 243.786C128.594 243.951 128.304 244.183 128.104 244.484C127.91 244.778 127.813 245.129 127.813 245.537C127.813 245.995 127.924 246.382 128.146 246.697C128.376 247.005 128.727 247.288 129.199 247.546C129.679 247.804 130.295 248.09 131.047 248.405C131.913 248.763 132.647 249.139 133.249 249.533C133.858 249.927 134.323 250.4 134.646 250.951C134.968 251.495 135.129 252.179 135.129 253.003ZM142.306 245.161C143.81 245.161 144.945 245.494 145.711 246.16C146.485 246.826 146.871 247.864 146.871 249.275V257.278H145.077L144.594 255.592H144.508C144.171 256.021 143.824 256.376 143.466 256.655C143.108 256.934 142.693 257.142 142.22 257.278C141.754 257.421 141.185 257.493 140.512 257.493C139.803 257.493 139.169 257.364 138.611 257.106C138.052 256.841 137.611 256.44 137.289 255.903C136.967 255.366 136.806 254.686 136.806 253.862C136.806 252.638 137.261 251.717 138.17 251.101C139.087 250.486 140.469 250.145 142.317 250.081L144.379 250.006V249.383C144.379 248.559 144.186 247.972 143.799 247.621C143.419 247.27 142.882 247.095 142.188 247.095C141.593 247.095 141.017 247.181 140.458 247.352C139.9 247.524 139.355 247.736 138.825 247.986L138.009 246.203C138.589 245.895 139.248 245.644 139.986 245.451C140.73 245.258 141.504 245.161 142.306 245.161ZM144.368 251.596L142.832 251.649C141.572 251.692 140.687 251.907 140.179 252.294C139.67 252.681 139.416 253.21 139.416 253.884C139.416 254.471 139.592 254.901 139.943 255.173C140.293 255.438 140.755 255.57 141.328 255.57C142.202 255.57 142.925 255.323 143.498 254.829C144.078 254.328 144.368 253.594 144.368 252.627V251.596ZM152.867 257.278L148.344 245.387H151.019L153.468 252.369C153.626 252.813 153.769 253.293 153.898 253.808C154.027 254.324 154.116 254.757 154.166 255.108H154.252C154.302 254.743 154.399 254.306 154.542 253.798C154.686 253.282 154.832 252.806 154.983 252.369L157.432 245.387H160.096L155.574 257.278H152.867ZM166.381 245.161C167.441 245.161 168.351 245.379 169.11 245.816C169.869 246.253 170.453 246.873 170.861 247.675C171.269 248.477 171.473 249.436 171.473 250.554V251.907H163.535C163.563 253.06 163.871 253.948 164.459 254.571C165.053 255.194 165.884 255.506 166.951 255.506C167.71 255.506 168.39 255.434 168.992 255.291C169.6 255.14 170.227 254.922 170.872 254.636V256.687C170.277 256.967 169.672 257.171 169.056 257.3C168.44 257.429 167.703 257.493 166.843 257.493C165.676 257.493 164.648 257.267 163.76 256.816C162.879 256.358 162.188 255.678 161.687 254.775C161.193 253.873 160.946 252.752 160.946 251.413C160.946 250.081 161.171 248.949 161.623 248.018C162.074 247.087 162.708 246.378 163.524 245.891C164.34 245.404 165.293 245.161 166.381 245.161ZM166.381 247.062C165.586 247.062 164.942 247.32 164.448 247.836C163.961 248.351 163.674 249.107 163.588 250.102H169.002C168.995 249.508 168.895 248.982 168.702 248.523C168.515 248.065 168.229 247.707 167.842 247.449C167.463 247.191 166.976 247.062 166.381 247.062ZM183.281 258.556V256.344C182.393 256.329 181.573 256.25 180.821 256.107C180.076 255.957 179.432 255.764 178.888 255.527V253.239C179.439 253.497 180.119 253.73 180.929 253.937C181.738 254.145 182.522 254.263 183.281 254.292V250.264C182.243 249.913 181.398 249.547 180.746 249.168C180.101 248.788 179.629 248.348 179.328 247.847C179.027 247.338 178.877 246.729 178.877 246.02C178.877 245.29 179.059 244.663 179.425 244.14C179.797 243.611 180.313 243.192 180.972 242.884C181.638 242.576 182.407 242.393 183.281 242.336V240.585H184.678V242.304C185.473 242.325 186.207 242.415 186.88 242.572C187.56 242.723 188.208 242.934 188.824 243.206L188.04 245.204C187.503 244.989 186.944 244.814 186.364 244.678C185.784 244.542 185.222 244.448 184.678 244.398V248.33C185.551 248.616 186.328 248.924 187.009 249.254C187.696 249.583 188.233 249.999 188.62 250.5C189.014 250.994 189.211 251.642 189.211 252.444C189.211 253.497 188.824 254.367 188.051 255.055C187.277 255.735 186.153 256.143 184.678 256.279V258.556H183.281ZM184.678 254.206C185.365 254.12 185.877 253.941 186.214 253.669C186.55 253.389 186.719 253.028 186.719 252.584C186.719 252.283 186.647 252.029 186.504 251.821C186.368 251.613 186.149 251.427 185.849 251.263C185.555 251.098 185.165 250.937 184.678 250.779V254.206ZM183.281 247.804V244.441C182.866 244.484 182.515 244.57 182.228 244.699C181.942 244.828 181.727 244.996 181.584 245.204C181.441 245.412 181.369 245.659 181.369 245.945C181.369 246.26 181.433 246.529 181.562 246.751C181.691 246.973 181.895 247.166 182.175 247.331C182.461 247.496 182.83 247.653 183.281 247.804ZM201.071 245.161C201.071 245.87 200.928 246.486 200.642 247.009C200.355 247.531 199.961 247.961 199.46 248.298C198.966 248.627 198.393 248.863 197.741 249.007V249.082C198.995 249.239 199.94 249.633 200.577 250.264C201.222 250.894 201.544 251.728 201.544 252.766C201.544 253.676 201.326 254.489 200.889 255.205C200.452 255.914 199.782 256.473 198.88 256.881C197.978 257.289 196.817 257.493 195.399 257.493C194.547 257.493 193.756 257.425 193.025 257.289C192.302 257.153 191.615 256.934 190.963 256.634V254.389C191.629 254.718 192.338 254.972 193.09 255.151C193.842 255.33 194.554 255.42 195.228 255.42C196.538 255.42 197.473 255.176 198.031 254.689C198.59 254.195 198.869 253.515 198.869 252.648C198.869 252.09 198.722 251.631 198.429 251.273C198.142 250.915 197.695 250.647 197.086 250.468C196.484 250.289 195.707 250.199 194.755 250.199H193.369V248.169H194.766C195.675 248.169 196.406 248.061 196.957 247.847C197.509 247.625 197.906 247.32 198.149 246.933C198.4 246.547 198.525 246.096 198.525 245.58C198.525 244.907 198.307 244.384 197.87 244.012C197.433 243.632 196.785 243.442 195.926 243.442C195.396 243.442 194.912 243.503 194.476 243.625C194.046 243.747 193.648 243.901 193.283 244.087C192.918 244.273 192.571 244.473 192.241 244.688L191.027 242.937C191.622 242.493 192.331 242.117 193.154 241.809C193.978 241.501 194.938 241.348 196.033 241.348C197.645 241.348 198.887 241.695 199.761 242.389C200.634 243.077 201.071 244.001 201.071 245.161ZM208.71 247.46C209.72 247.46 210.608 247.642 211.374 248.008C212.148 248.366 212.749 248.896 213.179 249.598C213.609 250.292 213.823 251.144 213.823 252.154C213.823 253.257 213.591 254.209 213.125 255.012C212.66 255.806 211.976 256.419 211.073 256.848C210.171 257.278 209.072 257.493 207.776 257.493C206.952 257.493 206.182 257.421 205.466 257.278C204.757 257.135 204.145 256.92 203.629 256.634V254.356C204.166 254.657 204.811 254.904 205.563 255.098C206.315 255.284 207.034 255.377 207.722 255.377C208.452 255.377 209.079 255.269 209.602 255.055C210.125 254.84 210.526 254.51 210.805 254.066C211.091 253.622 211.235 253.06 211.235 252.38C211.235 251.477 210.945 250.783 210.364 250.296C209.792 249.802 208.893 249.555 207.668 249.555C207.238 249.555 206.78 249.594 206.293 249.673C205.813 249.744 205.412 249.823 205.09 249.909L203.984 249.254L204.574 241.573H212.738V243.797H206.798L206.454 247.707C206.712 247.65 207.02 247.596 207.378 247.546C207.736 247.488 208.18 247.46 208.71 247.46ZM226.909 253.83H224.782V257.278H222.289V253.83H215.146V251.918L222.322 241.53H224.782V251.735H226.909V253.83ZM222.289 251.735V247.836C222.289 247.514 222.293 247.188 222.3 246.858C222.315 246.522 222.329 246.199 222.343 245.891C222.357 245.584 222.372 245.301 222.386 245.043C222.4 244.778 222.411 244.559 222.418 244.388H222.332C222.196 244.674 222.046 244.968 221.881 245.268C221.717 245.562 221.541 245.848 221.355 246.128L217.488 251.735H222.289Z" fill="#40FF93"/>
</g>
<defs>
<clipPath id="clip0_878_102301">
<rect width="198" height="107.8" fill="white" transform="translate(76 108.278)"/>
</clipPath>
<clipPath id="clip1_878_102301">
<rect width="136" height="43" fill="white" transform="translate(107 228.278)"/>
</clipPath>
</defs>
</svg>
