<svg width="350" height="353" viewBox="0 0 350 353" fill="none" xmlns="http://www.w3.org/2000/svg">
<ellipse cx="175" cy="176.111" rx="175" ry="176.111" fill="#F68496"/>
<g clip-path="url(#clip0_878_102277)">
<path d="M71.081 196.091L77.9701 154.595H95.9628C99.1236 154.595 101.71 155.02 103.723 155.871C105.749 156.722 107.181 157.925 108.019 159.478C108.87 161.031 109.12 162.862 108.768 164.969C108.498 166.482 107.917 167.866 107.026 169.123C106.148 170.365 105.033 171.419 103.683 172.284C102.345 173.135 100.853 173.722 99.2047 174.046L99.1236 174.452C100.907 174.506 102.46 174.951 103.784 175.789C105.108 176.613 106.08 177.761 106.702 179.233C107.323 180.692 107.472 182.394 107.147 184.339C106.769 186.609 105.844 188.628 104.371 190.398C102.899 192.167 100.988 193.559 98.6373 194.572C96.2869 195.585 93.6124 196.091 90.6136 196.091H71.081ZM83.8866 187.095H89.1547C91.0188 187.095 92.4844 186.737 93.5516 186.021C94.6322 185.305 95.2738 184.258 95.4765 182.881C95.6386 181.908 95.5575 181.084 95.2333 180.409C94.9091 179.733 94.3621 179.22 93.5921 178.869C92.8221 178.517 91.8563 178.342 90.6946 178.342H85.2644L83.8866 187.095ZM86.4801 171.372H91.0999C92.0725 171.372 92.964 171.216 93.7745 170.906C94.5849 170.595 95.2536 170.143 95.7804 169.548C96.3072 168.954 96.6382 168.238 96.7732 167.4C96.9759 166.104 96.6652 165.118 95.8412 164.442C95.0307 163.767 93.9366 163.429 92.5587 163.429H87.7769L86.4801 171.372ZM139.321 154.595H150.587L146.17 181.179C145.656 184.339 144.454 187.075 142.563 189.385C140.685 191.681 138.295 193.457 135.39 194.714C132.486 195.956 129.258 196.578 125.705 196.578C122.125 196.578 119.1 195.956 116.628 194.714C114.156 193.457 112.359 191.681 111.238 189.385C110.13 187.075 109.833 184.339 110.347 181.179L114.764 154.595H126.029L121.774 180.206C121.572 181.489 121.673 182.631 122.078 183.63C122.483 184.63 123.139 185.42 124.044 186.001C124.949 186.568 126.043 186.852 127.326 186.852C128.623 186.852 129.818 186.568 130.912 186.001C132.02 185.42 132.939 184.63 133.668 183.63C134.397 182.631 134.864 181.489 135.066 180.206L139.321 154.595ZM190.526 154.595L183.637 196.091H174.235L162.889 174.289H162.646L158.998 196.091H147.733L154.622 154.595H164.185L175.37 176.316H175.694L179.26 154.595H190.526ZM203.856 196.091H187.647L194.536 154.595H210.097C214.365 154.595 217.931 155.453 220.795 157.168C223.659 158.884 225.692 161.335 226.894 164.523C228.096 167.711 228.333 171.507 227.603 175.91C226.901 180.152 225.476 183.779 223.328 186.791C221.194 189.803 218.465 192.106 215.142 193.7C211.833 195.294 208.071 196.091 203.856 196.091ZM200.493 186.528H204.586C206.639 186.528 208.469 186.17 210.077 185.454C211.698 184.724 213.048 183.509 214.129 181.807C215.223 180.091 216.013 177.747 216.5 174.776C216.959 171.966 216.945 169.798 216.459 168.272C215.973 166.732 215.048 165.665 213.683 165.07C212.319 164.462 210.556 164.158 208.395 164.158H204.221L200.493 186.528ZM228.173 196.091L235.062 154.595H246.328L240.979 187.014H257.756L256.216 196.091H228.173ZM259.451 196.091L266.34 154.595H296.246L294.706 163.672H276.065L274.931 170.804H292.032L290.492 179.882H273.391L272.256 187.014H290.816L289.276 196.091H259.451Z" fill="black"/>
<path d="M81.1036 141.819H73.565L76.7689 122.521H84.0059C85.991 122.521 87.6495 122.92 88.9813 123.717C90.3131 124.515 91.2586 125.655 91.8177 127.138C92.3768 128.621 92.4867 130.386 92.1475 132.434C91.8208 134.406 91.1581 136.093 90.1592 137.494C89.1666 138.895 87.8977 139.966 86.3523 140.707C84.8131 141.449 83.0636 141.819 81.1036 141.819ZM79.5393 137.372H81.4428C82.3977 137.372 83.2489 137.205 83.9965 136.872C84.7503 136.533 85.3785 135.968 85.8811 135.176C86.3899 134.378 86.7575 133.288 86.9836 131.906C87.1972 130.6 87.1909 129.591 86.9648 128.881C86.7386 128.165 86.3083 127.669 85.6738 127.392C85.0393 127.11 84.2195 126.968 83.2143 126.968H81.2732L79.5393 137.372ZM92.4127 141.819L95.6165 122.521H109.525L108.809 126.742H100.14L99.612 130.059H107.565L106.849 134.281H98.8958L98.3681 137.598H107L106.284 141.819H92.4127ZM120.895 128.552C120.952 127.93 120.801 127.443 120.443 127.091C120.085 126.733 119.482 126.554 118.634 126.554C118.094 126.554 117.641 126.617 117.277 126.742C116.919 126.868 116.639 127.041 116.438 127.261C116.244 127.48 116.121 127.735 116.071 128.024C116.014 128.25 116.017 128.457 116.08 128.646C116.149 128.828 116.278 128.994 116.467 129.145C116.661 129.296 116.916 129.431 117.23 129.55C117.55 129.67 117.93 129.777 118.37 129.871L119.878 130.21C120.908 130.436 121.772 130.735 122.469 131.105C123.173 131.47 123.726 131.903 124.128 132.406C124.53 132.908 124.794 133.47 124.919 134.092C125.051 134.714 125.054 135.393 124.929 136.128C124.715 137.397 124.222 138.471 123.449 139.35C122.676 140.23 121.668 140.899 120.424 141.358C119.18 141.816 117.742 142.045 116.109 142.045C114.437 142.045 113.018 141.797 111.849 141.301C110.687 140.798 109.845 140.032 109.324 139.002C108.809 137.965 108.683 136.643 108.947 135.035H113.922C113.847 135.625 113.91 136.121 114.111 136.524C114.312 136.926 114.635 137.23 115.081 137.438C115.527 137.645 116.083 137.749 116.749 137.749C117.315 137.749 117.798 137.679 118.2 137.541C118.602 137.403 118.92 137.211 119.152 136.966C119.385 136.721 119.526 136.442 119.576 136.128C119.626 135.839 119.576 135.581 119.425 135.355C119.275 135.129 119.001 134.925 118.606 134.743C118.21 134.56 117.666 134.394 116.975 134.243L115.128 133.829C113.489 133.452 112.251 132.83 111.416 131.963C110.58 131.096 110.285 129.908 110.53 128.401C110.731 127.169 111.237 126.095 112.047 125.178C112.864 124.255 113.9 123.538 115.157 123.03C116.419 122.514 117.817 122.257 119.35 122.257C120.908 122.257 122.212 122.518 123.261 123.039C124.316 123.56 125.073 124.292 125.532 125.235C125.997 126.177 126.122 127.283 125.909 128.552H120.895ZM133.809 122.521L130.605 141.819H125.366L128.57 122.521H133.809ZM147.156 128.891C147.131 128.558 147.061 128.266 146.948 128.014C146.835 127.757 146.675 127.54 146.468 127.364C146.261 127.182 146.003 127.047 145.695 126.959C145.394 126.865 145.039 126.818 144.63 126.818C143.751 126.818 142.95 127.028 142.227 127.449C141.505 127.87 140.899 128.476 140.409 129.268C139.925 130.059 139.592 131.014 139.41 132.132C139.221 133.263 139.206 134.231 139.363 135.035C139.52 135.839 139.859 136.454 140.38 136.882C140.908 137.309 141.621 137.522 142.52 137.522C143.324 137.522 144.018 137.406 144.602 137.174C145.186 136.941 145.654 136.611 146.006 136.184C146.358 135.757 146.578 135.255 146.666 134.677L147.57 134.771H143.16L143.763 131.039H152.32L151.886 133.715C151.597 135.474 150.975 136.979 150.02 138.229C149.072 139.473 147.891 140.428 146.477 141.094C145.064 141.753 143.512 142.083 141.822 142.083C139.95 142.083 138.37 141.684 137.082 140.886C135.795 140.089 134.874 138.952 134.321 137.475C133.775 135.999 133.668 134.243 134.001 132.208C134.265 130.612 134.742 129.199 135.433 127.967C136.131 126.736 136.982 125.696 137.987 124.848C138.992 123.994 140.101 123.35 141.313 122.916C142.526 122.477 143.782 122.257 145.083 122.257C146.22 122.257 147.253 122.42 148.183 122.747C149.113 123.067 149.907 123.526 150.567 124.123C151.227 124.713 151.72 125.414 152.046 126.224C152.379 127.034 152.514 127.923 152.452 128.891H147.156ZM172.26 122.521L169.056 141.819H164.684L159.407 131.68H159.294L157.598 141.819H152.359L155.563 122.521H160.01L165.212 132.622H165.363L167.021 122.521H172.26ZM188.183 128.552C188.24 127.93 188.089 127.443 187.731 127.091C187.373 126.733 186.77 126.554 185.922 126.554C185.382 126.554 184.929 126.617 184.565 126.742C184.207 126.868 183.927 127.041 183.726 127.261C183.531 127.48 183.409 127.735 183.359 128.024C183.302 128.25 183.305 128.457 183.368 128.646C183.437 128.828 183.566 128.994 183.755 129.145C183.949 129.296 184.204 129.431 184.518 129.55C184.838 129.67 185.218 129.777 185.658 129.871L187.166 130.21C188.196 130.436 189.06 130.735 189.757 131.105C190.461 131.47 191.013 131.903 191.416 132.406C191.818 132.908 192.081 133.47 192.207 134.092C192.339 134.714 192.342 135.393 192.216 136.128C192.003 137.397 191.51 138.471 190.737 139.35C189.964 140.23 188.956 140.899 187.712 141.358C186.468 141.816 185.03 142.045 183.396 142.045C181.725 142.045 180.306 141.797 179.137 141.301C177.975 140.798 177.133 140.032 176.612 139.002C176.097 137.965 175.971 136.643 176.235 135.035H181.21C181.135 135.625 181.198 136.121 181.399 136.524C181.6 136.926 181.923 137.23 182.369 137.438C182.815 137.645 183.371 137.749 184.037 137.749C184.603 137.749 185.086 137.679 185.488 137.541C185.89 137.403 186.208 137.211 186.44 136.966C186.673 136.721 186.814 136.442 186.864 136.128C186.914 135.839 186.864 135.581 186.713 135.355C186.563 135.129 186.289 134.925 185.894 134.743C185.498 134.56 184.954 134.394 184.263 134.243L182.416 133.829C180.777 133.452 179.539 132.83 178.704 131.963C177.868 131.096 177.573 129.908 177.818 128.401C178.019 127.169 178.525 126.095 179.335 125.178C180.152 124.255 181.188 123.538 182.445 123.03C183.707 122.514 185.105 122.257 186.638 122.257C188.196 122.257 189.499 122.518 190.549 123.039C191.604 123.56 192.361 124.292 192.82 125.235C193.284 126.177 193.41 127.283 193.197 128.552H188.183ZM195.066 122.521H200.908L203.358 130.361H203.547L208.598 122.521H214.44L205.168 135.751L204.15 141.819H198.948L199.966 135.751L195.066 122.521ZM224.92 128.552C224.976 127.93 224.826 127.443 224.468 127.091C224.109 126.733 223.506 126.554 222.658 126.554C222.118 126.554 221.666 126.617 221.301 126.742C220.943 126.868 220.664 127.041 220.463 127.261C220.268 127.48 220.145 127.735 220.095 128.024C220.039 128.25 220.042 128.457 220.105 128.646C220.174 128.828 220.302 128.994 220.491 129.145C220.686 129.296 220.94 129.431 221.254 129.55C221.575 129.67 221.955 129.777 222.394 129.871L223.902 130.21C224.932 130.436 225.796 130.735 226.494 131.105C227.197 131.47 227.75 131.903 228.152 132.406C228.554 132.908 228.818 133.47 228.944 134.092C229.075 134.714 229.079 135.393 228.953 136.128C228.739 137.397 228.246 138.471 227.474 139.35C226.701 140.23 225.693 140.899 224.449 141.358C223.205 141.816 221.766 142.045 220.133 142.045C218.462 142.045 217.042 141.797 215.874 141.301C214.711 140.798 213.87 140.032 213.348 139.002C212.833 137.965 212.707 136.643 212.971 135.035H217.947C217.871 135.625 217.934 136.121 218.135 136.524C218.336 136.926 218.66 137.23 219.106 137.438C219.552 137.645 220.108 137.749 220.774 137.749C221.339 137.749 221.823 137.679 222.225 137.541C222.627 137.403 222.944 137.211 223.177 136.966C223.409 136.721 223.55 136.442 223.601 136.128C223.651 135.839 223.601 135.581 223.45 135.355C223.299 135.129 223.026 134.925 222.63 134.743C222.234 134.56 221.691 134.394 221 134.243L219.153 133.829C217.513 133.452 216.276 132.83 215.44 131.963C214.605 131.096 214.309 129.908 214.554 128.401C214.755 127.169 215.261 126.095 216.072 125.178C216.888 124.255 217.925 123.538 219.181 123.03C220.444 122.514 221.842 122.257 223.374 122.257C224.932 122.257 226.236 122.518 227.285 123.039C228.34 123.56 229.097 124.292 229.556 125.235C230.021 126.177 230.147 127.283 229.933 128.552H224.92ZM231.35 126.742L232.066 122.521H248.839L248.123 126.742H242.319L239.831 141.819H234.667L237.155 126.742H231.35ZM246.994 141.819L250.198 122.521H264.106L263.39 126.742H254.721L254.193 130.059H262.146L261.43 134.281H253.477L252.949 137.598H261.581L260.865 141.819H246.994ZM266.091 122.521H272.612L275.288 133.452H275.514L281.809 122.521H288.33L285.126 141.819H280L281.847 130.662H281.696L275.59 141.669H272.499L270.049 130.587H269.898L268.014 141.819H262.887L266.091 122.521Z" fill="black"/>
</g>
<g clip-path="url(#clip1_878_102277)">
<rect x="115" y="221.819" width="136" height="43" rx="21.5" fill="black"/>
<path d="M143.129 246.544C143.129 247.475 142.9 248.277 142.441 248.95C141.99 249.623 141.339 250.139 140.486 250.497C139.641 250.855 138.632 251.034 137.457 251.034C136.884 251.034 136.336 251.002 135.813 250.938C135.291 250.873 134.797 250.78 134.331 250.658C133.873 250.529 133.454 250.375 133.074 250.196V247.769C133.712 248.048 134.424 248.302 135.212 248.531C136 248.753 136.802 248.864 137.618 248.864C138.284 248.864 138.836 248.778 139.272 248.606C139.716 248.427 140.046 248.177 140.261 247.854C140.476 247.525 140.583 247.142 140.583 246.705C140.583 246.24 140.458 245.846 140.207 245.523C139.956 245.201 139.577 244.908 139.068 244.643C138.567 244.37 137.937 244.08 137.178 243.772C136.662 243.565 136.168 243.328 135.695 243.063C135.23 242.799 134.814 242.487 134.449 242.129C134.084 241.771 133.794 241.348 133.579 240.861C133.371 240.367 133.268 239.787 133.268 239.121C133.268 238.233 133.479 237.474 133.901 236.844C134.331 236.214 134.933 235.73 135.706 235.394C136.487 235.057 137.396 234.889 138.435 234.889C139.258 234.889 140.032 234.975 140.755 235.146C141.485 235.318 142.201 235.562 142.903 235.877L142.087 237.95C141.442 237.685 140.816 237.474 140.207 237.316C139.605 237.159 138.99 237.08 138.359 237.08C137.815 237.08 137.353 237.162 136.974 237.327C136.594 237.492 136.304 237.725 136.104 238.025C135.91 238.319 135.813 238.67 135.813 239.078C135.813 239.536 135.924 239.923 136.146 240.238C136.376 240.546 136.727 240.829 137.199 241.087C137.679 241.345 138.295 241.631 139.047 241.946C139.913 242.304 140.647 242.68 141.249 243.074C141.858 243.468 142.323 243.941 142.646 244.492C142.968 245.036 143.129 245.72 143.129 246.544ZM150.306 238.702C151.81 238.702 152.945 239.035 153.711 239.701C154.485 240.367 154.871 241.406 154.871 242.816V250.819H153.077L152.594 249.133H152.508C152.171 249.562 151.824 249.917 151.466 250.196C151.108 250.476 150.693 250.683 150.22 250.819C149.754 250.963 149.185 251.034 148.512 251.034C147.803 251.034 147.169 250.905 146.611 250.647C146.052 250.382 145.611 249.981 145.289 249.444C144.967 248.907 144.806 248.227 144.806 247.403C144.806 246.179 145.261 245.258 146.17 244.643C147.087 244.027 148.469 243.687 150.317 243.622L152.379 243.547V242.924C152.379 242.1 152.186 241.513 151.799 241.162C151.419 240.811 150.882 240.636 150.188 240.636C149.593 240.636 149.017 240.722 148.458 240.894C147.9 241.065 147.355 241.277 146.825 241.527L146.009 239.744C146.589 239.436 147.248 239.186 147.986 238.992C148.73 238.799 149.504 238.702 150.306 238.702ZM152.368 245.137L150.832 245.19C149.572 245.233 148.687 245.448 148.179 245.835C147.67 246.222 147.416 246.752 147.416 247.425C147.416 248.012 147.592 248.442 147.943 248.714C148.293 248.979 148.755 249.111 149.328 249.111C150.202 249.111 150.925 248.864 151.498 248.37C152.078 247.869 152.368 247.135 152.368 246.168V245.137ZM160.867 250.819L156.344 238.928H159.019L161.468 245.91C161.626 246.354 161.769 246.834 161.898 247.35C162.027 247.865 162.116 248.299 162.166 248.649H162.252C162.302 248.284 162.399 247.847 162.542 247.339C162.686 246.823 162.832 246.347 162.983 245.91L165.432 238.928H168.096L163.574 250.819H160.867ZM174.381 238.702C175.441 238.702 176.351 238.921 177.11 239.357C177.869 239.794 178.453 240.414 178.861 241.216C179.269 242.018 179.473 242.978 179.473 244.095V245.448H171.535C171.563 246.601 171.871 247.489 172.459 248.112C173.053 248.735 173.884 249.047 174.951 249.047C175.71 249.047 176.39 248.975 176.992 248.832C177.6 248.682 178.227 248.463 178.872 248.177V250.229C178.277 250.508 177.672 250.712 177.056 250.841C176.44 250.97 175.703 251.034 174.843 251.034C173.676 251.034 172.648 250.809 171.76 250.357C170.879 249.899 170.188 249.219 169.687 248.316C169.193 247.414 168.946 246.293 168.946 244.954C168.946 243.622 169.171 242.491 169.623 241.56C170.074 240.629 170.708 239.92 171.524 239.433C172.34 238.946 173.293 238.702 174.381 238.702ZM174.381 240.604C173.586 240.604 172.942 240.861 172.448 241.377C171.961 241.893 171.674 242.648 171.588 243.644H177.002C176.995 243.049 176.895 242.523 176.702 242.064C176.515 241.606 176.229 241.248 175.842 240.99C175.463 240.732 174.976 240.604 174.381 240.604ZM191.281 252.098V249.885C190.393 249.87 189.573 249.792 188.821 249.648C188.076 249.498 187.432 249.305 186.888 249.068V246.78C187.439 247.038 188.119 247.271 188.929 247.479C189.738 247.686 190.522 247.804 191.281 247.833V243.805C190.243 243.454 189.398 243.089 188.746 242.709C188.101 242.329 187.629 241.889 187.328 241.388C187.027 240.879 186.877 240.271 186.877 239.562C186.877 238.831 187.059 238.204 187.425 237.682C187.797 237.152 188.313 236.733 188.972 236.425C189.638 236.117 190.407 235.934 191.281 235.877V234.126H192.678V235.845C193.473 235.866 194.207 235.956 194.88 236.113C195.56 236.264 196.208 236.475 196.824 236.747L196.04 238.745C195.503 238.53 194.944 238.355 194.364 238.219C193.784 238.083 193.222 237.99 192.678 237.939V241.871C193.551 242.158 194.328 242.465 195.009 242.795C195.696 243.124 196.233 243.54 196.62 244.041C197.014 244.535 197.211 245.183 197.211 245.985C197.211 247.038 196.824 247.908 196.051 248.596C195.277 249.276 194.153 249.684 192.678 249.82V252.098H191.281ZM192.678 247.747C193.365 247.661 193.877 247.482 194.214 247.21C194.55 246.931 194.719 246.569 194.719 246.125C194.719 245.824 194.647 245.57 194.504 245.362C194.368 245.155 194.149 244.968 193.849 244.804C193.555 244.639 193.165 244.478 192.678 244.32V247.747ZM191.281 241.345V237.982C190.866 238.025 190.515 238.111 190.228 238.24C189.942 238.369 189.727 238.537 189.584 238.745C189.441 238.953 189.369 239.2 189.369 239.486C189.369 239.801 189.433 240.07 189.562 240.292C189.691 240.514 189.895 240.707 190.175 240.872C190.461 241.037 190.83 241.194 191.281 241.345ZM206.461 250.819H203.926V240.711C203.926 240.374 203.929 240.038 203.937 239.701C203.944 239.365 203.951 239.035 203.958 238.713C203.972 238.391 203.99 238.083 204.012 237.789C203.861 237.954 203.675 238.133 203.453 238.326C203.238 238.52 203.009 238.72 202.766 238.928L200.961 240.367L199.693 238.767L204.356 235.114H206.461V250.819ZM211.393 244.127C211.393 243.203 211.457 242.294 211.586 241.398C211.722 240.503 211.951 239.665 212.274 238.885C212.596 238.104 213.04 237.417 213.606 236.822C214.179 236.228 214.898 235.762 215.765 235.426C216.631 235.082 217.673 234.91 218.891 234.91C219.206 234.91 219.56 234.924 219.954 234.953C220.348 234.982 220.674 235.028 220.932 235.093V237.188C220.653 237.109 220.345 237.048 220.008 237.005C219.679 236.962 219.349 236.94 219.02 236.94C217.702 236.94 216.674 237.191 215.937 237.692C215.199 238.187 214.673 238.867 214.358 239.733C214.043 240.593 213.86 241.577 213.81 242.688H213.939C214.154 242.329 214.422 242.011 214.744 241.731C215.067 241.452 215.46 241.23 215.926 241.065C216.391 240.894 216.932 240.808 217.548 240.808C218.465 240.808 219.263 241.001 219.944 241.388C220.624 241.767 221.147 242.319 221.512 243.042C221.884 243.765 222.071 244.643 222.071 245.674C222.071 246.784 221.859 247.74 221.437 248.542C221.021 249.344 220.427 249.96 219.654 250.39C218.887 250.819 217.974 251.034 216.914 251.034C216.134 251.034 215.407 250.891 214.734 250.604C214.068 250.318 213.484 249.888 212.983 249.315C212.481 248.743 212.091 248.026 211.812 247.167C211.532 246.3 211.393 245.287 211.393 244.127ZM216.871 248.95C217.688 248.95 218.343 248.685 218.837 248.155C219.338 247.618 219.589 246.798 219.589 245.695C219.589 244.8 219.367 244.091 218.923 243.568C218.486 243.046 217.827 242.784 216.946 242.784C216.345 242.784 215.819 242.913 215.367 243.171C214.916 243.429 214.565 243.755 214.315 244.148C214.071 244.542 213.949 244.943 213.949 245.352C213.949 245.767 214.01 246.186 214.132 246.608C214.254 247.031 214.436 247.421 214.68 247.779C214.923 248.13 215.228 248.413 215.593 248.628C215.958 248.843 216.384 248.95 216.871 248.95ZM223.726 244.127C223.726 243.203 223.79 242.294 223.919 241.398C224.055 240.503 224.285 239.665 224.607 238.885C224.929 238.104 225.373 237.417 225.939 236.822C226.512 236.228 227.232 235.762 228.098 235.426C228.965 235.082 230.007 234.91 231.224 234.91C231.539 234.91 231.894 234.924 232.287 234.953C232.681 234.982 233.007 235.028 233.265 235.093V237.188C232.986 237.109 232.678 237.048 232.341 237.005C232.012 236.962 231.682 236.94 231.353 236.94C230.035 236.94 229.008 237.191 228.27 237.692C227.532 238.187 227.006 238.867 226.691 239.733C226.376 240.593 226.193 241.577 226.143 242.688H226.272C226.487 242.329 226.755 242.011 227.078 241.731C227.4 241.452 227.794 241.23 228.259 241.065C228.725 240.894 229.265 240.808 229.881 240.808C230.798 240.808 231.596 241.001 232.277 241.388C232.957 241.767 233.48 242.319 233.845 243.042C234.218 243.765 234.404 244.643 234.404 245.674C234.404 246.784 234.192 247.74 233.77 248.542C233.355 249.344 232.76 249.96 231.987 250.39C231.22 250.819 230.307 251.034 229.247 251.034C228.467 251.034 227.74 250.891 227.067 250.604C226.401 250.318 225.817 249.888 225.316 249.315C224.815 248.743 224.424 248.026 224.145 247.167C223.866 246.3 223.726 245.287 223.726 244.127ZM229.204 248.95C230.021 248.95 230.676 248.685 231.17 248.155C231.672 247.618 231.922 246.798 231.922 245.695C231.922 244.8 231.7 244.091 231.256 243.568C230.819 243.046 230.161 242.784 229.28 242.784C228.678 242.784 228.152 242.913 227.701 243.171C227.249 243.429 226.898 243.755 226.648 244.148C226.404 244.542 226.283 244.943 226.283 245.352C226.283 245.767 226.343 246.186 226.465 246.608C226.587 247.031 226.77 247.421 227.013 247.779C227.257 248.13 227.561 248.413 227.926 248.628C228.291 248.843 228.718 248.95 229.204 248.95Z" fill="#F68496"/>
</g>
<defs>
<clipPath id="clip0_878_102277">
<rect width="223.527" height="93.272" fill="white" transform="translate(71 115.819)"/>
</clipPath>
<clipPath id="clip1_878_102277">
<rect width="136" height="43" fill="white" transform="translate(115 221.819)"/>
</clipPath>
</defs>
</svg>
