<svg width="350" height="356" viewBox="0 0 350 356" fill="none" xmlns="http://www.w3.org/2000/svg">
<ellipse cx="175" cy="177.745" rx="175" ry="177.745" fill="black"/>
<g clip-path="url(#clip0_878_102289)">
<path d="M76.072 188.023L82.1957 151.137H98.1891C100.999 151.137 103.298 151.515 105.087 152.271C106.888 153.028 108.161 154.096 108.905 155.477C109.662 156.858 109.884 158.485 109.572 160.358C109.332 161.703 108.815 162.934 108.023 164.05C107.242 165.155 106.252 166.092 105.051 166.86C103.862 167.616 102.536 168.139 101.071 168.427L100.999 168.787C102.584 168.835 103.965 169.231 105.141 169.976C106.318 170.708 107.182 171.729 107.735 173.038C108.287 174.334 108.419 175.847 108.131 177.576C107.795 179.594 106.972 181.389 105.664 182.962C104.355 184.534 102.656 185.771 100.567 186.672C98.4773 187.572 96.0999 188.023 93.4343 188.023H76.072ZM87.4548 180.026H92.1375C93.7945 180.026 95.0973 179.708 96.0458 179.071C97.0064 178.435 97.5768 177.504 97.7569 176.28C97.9009 175.415 97.8289 174.683 97.5407 174.082C97.2526 173.482 96.7663 173.026 96.0819 172.713C95.3975 172.401 94.539 172.245 93.5063 172.245H88.6795L87.4548 180.026ZM89.7601 166.05H93.8666C94.7311 166.05 95.5235 165.911 96.244 165.635C96.9644 165.359 97.5587 164.957 98.027 164.429C98.4953 163.9 98.7895 163.264 98.9095 162.519C99.0896 161.367 98.8135 160.49 98.0811 159.89C97.3606 159.29 96.388 158.989 95.1633 158.989H90.9128L89.7601 166.05ZM136.73 151.137H146.744L142.818 174.767C142.361 177.576 141.293 180.008 139.612 182.061C137.943 184.102 135.817 185.681 133.236 186.798C130.654 187.902 127.785 188.455 124.627 188.455C121.445 188.455 118.755 187.902 116.558 186.798C114.361 185.681 112.764 184.102 111.767 182.061C110.783 180.008 110.518 177.576 110.975 174.767L114.901 151.137H124.915L121.133 173.902C120.953 175.043 121.043 176.057 121.403 176.946C121.763 177.835 122.345 178.537 123.15 179.053C123.954 179.558 124.927 179.81 126.068 179.81C127.22 179.81 128.283 179.558 129.255 179.053C130.24 178.537 131.057 177.835 131.705 176.946C132.353 176.057 132.768 175.043 132.948 173.902L136.73 151.137ZM182.245 151.137L176.122 188.023H167.765L157.679 168.643H157.463L154.221 188.023H144.207L150.33 151.137H158.831L168.773 170.444H169.062L172.231 151.137H182.245ZM194.094 188.023H179.686L185.809 151.137H199.642C203.436 151.137 206.606 151.899 209.151 153.424C211.697 154.949 213.504 157.128 214.572 159.962C215.641 162.796 215.851 166.17 215.203 170.084C214.578 173.854 213.312 177.078 211.403 179.756C209.505 182.433 207.08 184.48 204.126 185.897C201.185 187.314 197.841 188.023 194.094 188.023ZM191.105 179.522H194.743C196.568 179.522 198.195 179.203 199.624 178.567C201.064 177.919 202.265 176.838 203.226 175.325C204.198 173.8 204.901 171.717 205.333 169.075C205.741 166.578 205.729 164.651 205.297 163.294C204.865 161.925 204.042 160.977 202.83 160.448C201.617 159.908 200.05 159.638 198.129 159.638H194.419L191.105 179.522ZM215.71 188.023L221.833 151.137H231.847L227.092 179.954H242.005L240.636 188.023H215.71ZM243.512 188.023L249.635 151.137H276.219L274.85 159.206H258.28L257.272 165.545H272.473L271.104 173.614H255.903L254.894 179.954H271.392L270.023 188.023H243.512Z" fill="white"/>
<path d="M80.5331 136.819L83.9234 116.398H92.7782C94.3337 116.398 95.6068 116.607 96.5973 117.026C97.5944 117.445 98.2991 118.036 98.7113 118.801C99.1301 119.565 99.2531 120.466 99.0802 121.503C98.9473 122.248 98.6614 122.929 98.2227 123.547C97.7906 124.159 97.2421 124.677 96.5773 125.103C95.9192 125.522 95.1846 125.811 94.3736 125.97L94.3337 126.17C95.2112 126.196 95.9757 126.416 96.6272 126.828C97.2787 127.233 97.7573 127.798 98.0631 128.523C98.3689 129.241 98.442 130.079 98.2825 131.036C98.0963 132.153 97.641 133.146 96.9164 134.017C96.1918 134.888 95.2511 135.573 94.0944 136.071C92.9377 136.57 91.6215 136.819 90.1457 136.819H80.5331ZM86.8351 132.392H89.4277C90.3451 132.392 91.0664 132.216 91.5915 131.863C92.1234 131.511 92.4391 130.996 92.5388 130.318C92.6186 129.839 92.5787 129.434 92.4192 129.101C92.2596 128.769 91.9904 128.516 91.6115 128.343C91.2326 128.171 90.7573 128.084 90.1856 128.084H87.5132L86.8351 132.392ZM88.1115 124.654H90.385C90.8636 124.654 91.3024 124.578 91.7012 124.425C92.1001 124.272 92.4292 124.049 92.6884 123.757C92.9477 123.464 93.1106 123.112 93.177 122.7C93.2767 122.061 93.1238 121.576 92.7183 121.244C92.3195 120.911 91.781 120.745 91.1029 120.745H88.7496L88.1115 124.654ZM120.059 126.967C119.687 129.188 118.949 131.049 117.846 132.551C116.742 134.054 115.403 135.187 113.827 135.952C112.252 136.716 110.566 137.099 108.772 137.099C106.857 137.099 105.195 136.683 103.786 135.852C102.376 135.021 101.349 133.805 100.704 132.202C100.06 130.6 99.93 128.643 100.316 126.329C100.675 124.109 101.406 122.241 102.509 120.725C103.613 119.21 104.959 118.063 106.548 117.285C108.137 116.507 109.835 116.118 111.643 116.118C113.545 116.118 115.197 116.537 116.599 117.375C118.009 118.212 119.032 119.439 119.67 121.054C120.315 122.67 120.445 124.641 120.059 126.967ZM114.475 126.329C114.661 125.159 114.675 124.175 114.515 123.378C114.356 122.573 114.02 121.968 113.508 121.563C112.996 121.151 112.308 120.945 111.444 120.945C110.46 120.945 109.589 121.184 108.831 121.663C108.073 122.141 107.445 122.829 106.947 123.727C106.448 124.624 106.099 125.704 105.9 126.967C105.687 128.151 105.667 129.135 105.84 129.919C106.019 130.703 106.372 131.292 106.897 131.684C107.429 132.076 108.12 132.272 108.971 132.272C109.942 132.272 110.799 132.04 111.544 131.574C112.295 131.109 112.916 130.434 113.408 129.55C113.907 128.666 114.263 127.592 114.475 126.329ZM141.759 126.967C141.387 129.188 140.649 131.049 139.545 132.551C138.442 134.054 137.102 135.187 135.527 135.952C133.951 136.716 132.266 137.099 130.471 137.099C128.557 137.099 126.895 136.683 125.485 135.852C124.076 135.021 123.049 133.805 122.404 132.202C121.759 130.6 121.63 128.643 122.015 126.329C122.374 124.109 123.105 122.241 124.209 120.725C125.312 119.21 126.659 118.063 128.247 117.285C129.836 116.507 131.535 116.118 133.343 116.118C135.244 116.118 136.896 116.537 138.299 117.375C139.708 118.212 140.732 119.439 141.37 121.054C142.015 122.67 142.144 124.641 141.759 126.967ZM136.175 126.329C136.361 125.159 136.374 124.175 136.215 123.378C136.055 122.573 135.719 121.968 135.208 121.563C134.696 121.151 134.008 120.945 133.143 120.945C132.16 120.945 131.289 121.184 130.531 121.663C129.773 122.141 129.145 122.829 128.646 123.727C128.148 124.624 127.799 125.704 127.599 126.967C127.387 128.151 127.367 129.135 127.539 129.919C127.719 130.703 128.071 131.292 128.596 131.684C129.128 132.076 129.82 132.272 130.671 132.272C131.641 132.272 132.499 132.04 133.243 131.574C133.994 131.109 134.616 130.434 135.108 129.55C135.606 128.666 135.962 127.592 136.175 126.329ZM143.154 120.865L143.912 116.398H161.661L160.903 120.865H154.761L152.128 136.819H146.664L149.296 120.865H143.154ZM173.03 122.779C173.09 122.121 172.93 121.606 172.552 121.234C172.173 120.855 171.534 120.665 170.637 120.665C170.065 120.665 169.587 120.732 169.201 120.865C168.822 120.998 168.526 121.181 168.314 121.413C168.107 121.646 167.978 121.915 167.925 122.221C167.865 122.46 167.868 122.68 167.935 122.879C168.008 123.072 168.144 123.248 168.343 123.408C168.55 123.567 168.819 123.71 169.151 123.836C169.49 123.963 169.892 124.076 170.358 124.175L171.953 124.534C173.043 124.774 173.957 125.089 174.695 125.482C175.44 125.867 176.025 126.326 176.45 126.858C176.876 127.39 177.155 127.985 177.288 128.643C177.428 129.301 177.431 130.019 177.298 130.796C177.072 132.139 176.55 133.276 175.732 134.207C174.915 135.137 173.848 135.845 172.532 136.331C171.215 136.816 169.693 137.059 167.965 137.059C166.196 137.059 164.694 136.796 163.457 136.271C162.228 135.739 161.337 134.928 160.785 133.838C160.24 132.741 160.107 131.342 160.386 129.64H165.651C165.571 130.265 165.638 130.79 165.851 131.215C166.063 131.641 166.406 131.963 166.878 132.183C167.35 132.402 167.938 132.512 168.643 132.512C169.241 132.512 169.753 132.438 170.178 132.292C170.604 132.146 170.939 131.943 171.185 131.684C171.431 131.425 171.581 131.129 171.634 130.796C171.687 130.491 171.634 130.218 171.475 129.979C171.315 129.74 171.026 129.523 170.607 129.331C170.188 129.138 169.613 128.962 168.882 128.802L166.928 128.363C165.192 127.965 163.883 127.306 162.999 126.389C162.115 125.472 161.802 124.215 162.061 122.62C162.274 121.317 162.809 120.18 163.667 119.21C164.531 118.232 165.628 117.474 166.957 116.936C168.294 116.391 169.773 116.118 171.395 116.118C173.043 116.118 174.423 116.394 175.533 116.946C176.65 117.498 177.451 118.272 177.936 119.269C178.428 120.266 178.561 121.436 178.335 122.779H173.03ZM179.835 120.865L180.592 116.398H198.342L197.584 120.865H191.442L188.809 136.819H183.345L185.977 120.865H179.835ZM196.389 136.819L199.779 116.398H208.594C210.11 116.398 211.389 116.673 212.433 117.225C213.477 117.777 214.228 118.571 214.687 119.608C215.145 120.645 215.255 121.889 215.016 123.338C214.777 124.8 214.248 126.033 213.43 127.037C212.619 128.034 211.586 128.792 210.329 129.311C209.079 129.823 207.677 130.079 206.121 130.079H200.856L201.574 125.771H205.722C206.374 125.771 206.945 125.691 207.437 125.531C207.929 125.365 208.328 125.106 208.634 124.754C208.94 124.395 209.139 123.923 209.232 123.338C209.325 122.753 209.279 122.277 209.093 121.912C208.907 121.54 208.597 121.267 208.165 121.094C207.733 120.915 207.198 120.825 206.56 120.825H204.605L201.933 136.819H196.389ZM209.91 127.446L213.46 136.819H207.437L204.007 127.446H209.91ZM220.075 136.819H214.092L224.223 116.398H231.802L235.152 136.819H229.169L227.175 122.021H227.016L220.075 136.819ZM220.315 128.762H231.563L230.845 132.91H219.597L220.315 128.762ZM236.47 136.819L239.86 116.398H248.675C250.191 116.398 251.467 116.697 252.504 117.295C253.541 117.893 254.286 118.734 254.738 119.818C255.19 120.901 255.296 122.168 255.057 123.617C254.818 125.093 254.286 126.366 253.462 127.436C252.644 128.5 251.6 129.321 250.331 129.899C249.067 130.471 247.651 130.757 246.083 130.757H240.818L241.536 126.449H245.684C246.349 126.449 246.934 126.336 247.439 126.11C247.944 125.877 248.353 125.551 248.665 125.133C248.978 124.707 249.18 124.202 249.274 123.617C249.367 123.032 249.323 122.533 249.144 122.121C248.971 121.702 248.672 121.383 248.246 121.164C247.828 120.938 247.293 120.825 246.641 120.825H244.687L242.014 136.819H236.47ZM267.37 137.099C265.808 137.099 264.465 136.819 263.341 136.261C262.218 135.703 261.39 134.935 260.858 133.957C260.327 132.98 260.157 131.86 260.35 130.597H265.734C265.641 131.295 265.821 131.857 266.273 132.282C266.725 132.701 267.317 132.91 268.048 132.91C268.626 132.91 269.151 132.791 269.623 132.551C270.095 132.306 270.491 131.963 270.81 131.524C271.129 131.079 271.338 130.557 271.438 129.959C271.538 129.361 271.501 128.842 271.328 128.403C271.156 127.958 270.873 127.616 270.481 127.376C270.089 127.13 269.61 127.007 269.045 127.007C268.453 127.007 267.888 127.15 267.35 127.436C266.811 127.715 266.379 128.104 266.054 128.603L261.347 127.645L264.019 116.398H277.74L277.022 120.825H267.848L266.692 125.332H266.811C267.237 124.714 267.875 124.202 268.726 123.796C269.583 123.384 270.527 123.178 271.558 123.178C272.774 123.178 273.811 123.461 274.669 124.026C275.527 124.591 276.148 125.372 276.534 126.369C276.919 127.366 277.002 128.51 276.783 129.799C276.564 131.222 276.025 132.482 275.168 133.579C274.31 134.675 273.213 135.536 271.877 136.161C270.541 136.786 269.038 137.099 267.37 137.099Z" fill="white"/>
</g>
<g clip-path="url(#clip1_878_102289)">
<rect x="109" y="212.819" width="136" height="43" rx="21.5" fill="white"/>
<path d="M137.129 237.544C137.129 238.475 136.9 239.277 136.441 239.95C135.99 240.623 135.339 241.139 134.486 241.497C133.641 241.855 132.632 242.034 131.457 242.034C130.884 242.034 130.336 242.002 129.813 241.938C129.291 241.873 128.797 241.78 128.331 241.658C127.873 241.529 127.454 241.375 127.074 241.196V238.769C127.712 239.048 128.424 239.302 129.212 239.531C130 239.753 130.802 239.864 131.618 239.864C132.284 239.864 132.836 239.778 133.272 239.606C133.716 239.427 134.046 239.177 134.261 238.854C134.476 238.525 134.583 238.142 134.583 237.705C134.583 237.24 134.458 236.846 134.207 236.523C133.956 236.201 133.577 235.908 133.068 235.643C132.567 235.37 131.937 235.08 131.178 234.772C130.662 234.565 130.168 234.328 129.695 234.063C129.23 233.799 128.814 233.487 128.449 233.129C128.084 232.771 127.794 232.348 127.579 231.861C127.371 231.367 127.268 230.787 127.268 230.121C127.268 229.233 127.479 228.474 127.901 227.844C128.331 227.214 128.933 226.73 129.706 226.394C130.487 226.057 131.396 225.889 132.435 225.889C133.258 225.889 134.032 225.975 134.755 226.146C135.485 226.318 136.201 226.562 136.903 226.877L136.087 228.95C135.442 228.685 134.816 228.474 134.207 228.316C133.605 228.159 132.99 228.08 132.359 228.08C131.815 228.08 131.353 228.162 130.974 228.327C130.594 228.492 130.304 228.725 130.104 229.025C129.91 229.319 129.813 229.67 129.813 230.078C129.813 230.536 129.924 230.923 130.146 231.238C130.376 231.546 130.727 231.829 131.199 232.087C131.679 232.345 132.295 232.631 133.047 232.946C133.913 233.304 134.647 233.68 135.249 234.074C135.858 234.468 136.323 234.941 136.646 235.492C136.968 236.036 137.129 236.72 137.129 237.544ZM144.306 229.702C145.81 229.702 146.945 230.035 147.711 230.701C148.485 231.367 148.871 232.406 148.871 233.816V241.819H147.077L146.594 240.133H146.508C146.171 240.562 145.824 240.917 145.466 241.196C145.108 241.476 144.693 241.683 144.22 241.819C143.754 241.963 143.185 242.034 142.512 242.034C141.803 242.034 141.169 241.905 140.611 241.647C140.052 241.382 139.611 240.981 139.289 240.444C138.967 239.907 138.806 239.227 138.806 238.403C138.806 237.179 139.261 236.258 140.17 235.643C141.087 235.027 142.469 234.687 144.317 234.622L146.379 234.547V233.924C146.379 233.1 146.186 232.513 145.799 232.162C145.419 231.811 144.882 231.636 144.188 231.636C143.593 231.636 143.017 231.722 142.458 231.894C141.9 232.065 141.355 232.277 140.825 232.527L140.009 230.744C140.589 230.436 141.248 230.186 141.986 229.992C142.73 229.799 143.504 229.702 144.306 229.702ZM146.368 236.137L144.832 236.19C143.572 236.233 142.687 236.448 142.179 236.835C141.67 237.222 141.416 237.752 141.416 238.425C141.416 239.012 141.592 239.442 141.943 239.714C142.293 239.979 142.755 240.111 143.328 240.111C144.202 240.111 144.925 239.864 145.498 239.37C146.078 238.869 146.368 238.135 146.368 237.168V236.137ZM154.867 241.819L150.344 229.928H153.019L155.468 236.91C155.626 237.354 155.769 237.834 155.898 238.35C156.027 238.865 156.116 239.299 156.166 239.649H156.252C156.302 239.284 156.399 238.847 156.542 238.339C156.686 237.823 156.832 237.347 156.983 236.91L159.432 229.928H162.096L157.574 241.819H154.867ZM168.381 229.702C169.441 229.702 170.351 229.921 171.11 230.357C171.869 230.794 172.453 231.414 172.861 232.216C173.269 233.018 173.473 233.978 173.473 235.095V236.448H165.535C165.563 237.601 165.871 238.489 166.459 239.112C167.053 239.735 167.884 240.047 168.951 240.047C169.71 240.047 170.39 239.975 170.992 239.832C171.6 239.682 172.227 239.463 172.872 239.177V241.229C172.277 241.508 171.672 241.712 171.056 241.841C170.44 241.97 169.703 242.034 168.843 242.034C167.676 242.034 166.648 241.809 165.76 241.357C164.879 240.899 164.188 240.219 163.687 239.316C163.193 238.414 162.946 237.293 162.946 235.954C162.946 234.622 163.171 233.491 163.623 232.56C164.074 231.629 164.708 230.92 165.524 230.433C166.34 229.946 167.293 229.702 168.381 229.702ZM168.381 231.604C167.586 231.604 166.942 231.861 166.448 232.377C165.961 232.893 165.674 233.648 165.588 234.644H171.002C170.995 234.049 170.895 233.523 170.702 233.064C170.515 232.606 170.229 232.248 169.842 231.99C169.463 231.732 168.976 231.604 168.381 231.604ZM185.281 243.098V240.885C184.393 240.87 183.573 240.792 182.821 240.648C182.076 240.498 181.432 240.305 180.888 240.068V237.78C181.439 238.038 182.119 238.271 182.929 238.479C183.738 238.686 184.522 238.804 185.281 238.833V234.805C184.243 234.454 183.398 234.089 182.746 233.709C182.101 233.329 181.629 232.889 181.328 232.388C181.027 231.879 180.877 231.271 180.877 230.562C180.877 229.831 181.059 229.204 181.425 228.682C181.797 228.152 182.313 227.733 182.972 227.425C183.638 227.117 184.407 226.934 185.281 226.877V225.126H186.678V226.845C187.473 226.866 188.207 226.956 188.88 227.113C189.56 227.264 190.208 227.475 190.824 227.747L190.04 229.745C189.503 229.53 188.944 229.355 188.364 229.219C187.784 229.083 187.222 228.99 186.678 228.939V232.871C187.551 233.158 188.328 233.465 189.009 233.795C189.696 234.124 190.233 234.54 190.62 235.041C191.014 235.535 191.211 236.183 191.211 236.985C191.211 238.038 190.824 238.908 190.051 239.596C189.277 240.276 188.153 240.684 186.678 240.82V243.098H185.281ZM186.678 238.747C187.365 238.661 187.877 238.482 188.214 238.21C188.55 237.931 188.719 237.569 188.719 237.125C188.719 236.824 188.647 236.57 188.504 236.362C188.368 236.155 188.149 235.968 187.849 235.804C187.555 235.639 187.165 235.478 186.678 235.32V238.747ZM185.281 232.345V228.982C184.866 229.025 184.515 229.111 184.228 229.24C183.942 229.369 183.727 229.537 183.584 229.745C183.441 229.953 183.369 230.2 183.369 230.486C183.369 230.801 183.433 231.07 183.562 231.292C183.691 231.514 183.895 231.707 184.175 231.872C184.461 232.037 184.83 232.194 185.281 232.345ZM203.071 229.702C203.071 230.411 202.928 231.027 202.642 231.55C202.355 232.073 201.961 232.502 201.46 232.839C200.966 233.168 200.393 233.405 199.741 233.548V233.623C200.995 233.781 201.94 234.174 202.577 234.805C203.222 235.435 203.544 236.269 203.544 237.308C203.544 238.217 203.326 239.03 202.889 239.746C202.452 240.455 201.782 241.014 200.88 241.422C199.978 241.83 198.817 242.034 197.399 242.034C196.547 242.034 195.756 241.966 195.025 241.83C194.302 241.694 193.615 241.476 192.963 241.175V238.93C193.629 239.259 194.338 239.513 195.09 239.692C195.842 239.871 196.554 239.961 197.228 239.961C198.538 239.961 199.473 239.717 200.031 239.23C200.59 238.736 200.869 238.056 200.869 237.189C200.869 236.631 200.722 236.173 200.429 235.814C200.142 235.456 199.695 235.188 199.086 235.009C198.484 234.83 197.707 234.74 196.755 234.74H195.369V232.71H196.766C197.675 232.71 198.406 232.603 198.957 232.388C199.509 232.166 199.906 231.861 200.149 231.475C200.4 231.088 200.525 230.637 200.525 230.121C200.525 229.448 200.307 228.925 199.87 228.553C199.433 228.173 198.785 227.983 197.926 227.983C197.396 227.983 196.912 228.044 196.476 228.166C196.046 228.288 195.648 228.442 195.283 228.628C194.918 228.814 194.571 229.015 194.241 229.229L193.027 227.479C193.622 227.035 194.331 226.659 195.154 226.351C195.978 226.043 196.938 225.889 198.033 225.889C199.645 225.889 200.887 226.236 201.761 226.931C202.634 227.618 203.071 228.542 203.071 229.702ZM210.71 232.001C211.72 232.001 212.608 232.184 213.374 232.549C214.148 232.907 214.749 233.437 215.179 234.139C215.609 234.833 215.823 235.686 215.823 236.695C215.823 237.798 215.591 238.751 215.125 239.553C214.66 240.348 213.976 240.96 213.073 241.39C212.171 241.819 211.072 242.034 209.776 242.034C208.952 242.034 208.182 241.963 207.466 241.819C206.757 241.676 206.145 241.461 205.629 241.175V238.897C206.166 239.198 206.811 239.445 207.563 239.639C208.315 239.825 209.034 239.918 209.722 239.918C210.452 239.918 211.079 239.811 211.602 239.596C212.125 239.381 212.526 239.051 212.805 238.607C213.091 238.163 213.235 237.601 213.235 236.921C213.235 236.019 212.945 235.324 212.364 234.837C211.792 234.343 210.893 234.096 209.668 234.096C209.238 234.096 208.78 234.135 208.293 234.214C207.813 234.285 207.412 234.364 207.09 234.45L205.984 233.795L206.574 226.114H214.738V228.338H208.798L208.454 232.248C208.712 232.191 209.02 232.137 209.378 232.087C209.736 232.03 210.18 232.001 210.71 232.001ZM228.909 238.371H226.782V241.819H224.289V238.371H217.146V236.459L224.322 226.071H226.782V236.276H228.909V238.371ZM224.289 236.276V232.377C224.289 232.055 224.293 231.729 224.3 231.399C224.315 231.063 224.329 230.741 224.343 230.433C224.357 230.125 224.372 229.842 224.386 229.584C224.4 229.319 224.411 229.101 224.418 228.929H224.332C224.196 229.215 224.046 229.509 223.881 229.81C223.717 230.103 223.541 230.39 223.355 230.669L219.488 236.276H224.289Z" fill="#121212"/>
</g>
<defs>
<clipPath id="clip0_878_102289">
<rect width="201.493" height="90.2032" fill="white" transform="translate(76 109.819)"/>
</clipPath>
<clipPath id="clip1_878_102289">
<rect width="136" height="43" fill="white" transform="translate(109 212.819)"/>
</clipPath>
</defs>
</svg>
