<svg width="217" height="64" viewBox="0 0 217 64" fill="none" xmlns="http://www.w3.org/2000/svg">
<rect width="217" height="64" rx="3" fill="#0D6EFD"/>
<path d="M42.5941 23.9H45.5841V37.47H54.0021V40H42.5941V23.9ZM67.5204 33.928C67.5204 34.1273 67.505 34.411 67.4744 34.779H57.8374C58.006 35.6837 58.443 36.4043 59.1484 36.941C59.869 37.4623 60.7584 37.723 61.8164 37.723C63.1657 37.723 64.2774 37.2783 65.1514 36.389L66.6924 38.16C66.1404 38.8193 65.4427 39.3177 64.5994 39.655C63.756 39.9923 62.8054 40.161 61.7474 40.161C60.398 40.161 59.2097 39.8927 58.1824 39.356C57.155 38.8193 56.3577 38.0757 55.7904 37.125C55.2384 36.159 54.9624 35.0703 54.9624 33.859C54.9624 32.663 55.2307 31.5897 55.7674 30.639C56.3194 29.673 57.0784 28.9217 58.0444 28.385C59.0104 27.8483 60.099 27.58 61.3104 27.58C62.5064 27.58 63.572 27.8483 64.5074 28.385C65.458 28.9063 66.194 29.65 66.7154 30.616C67.252 31.5667 67.5204 32.6707 67.5204 33.928ZM61.3104 29.88C60.3904 29.88 59.6084 30.156 58.9644 30.708C58.3357 31.2447 57.9524 31.9653 57.8144 32.87H64.7834C64.6607 31.9807 64.285 31.26 63.6564 30.708C63.0277 30.156 62.2457 29.88 61.3104 29.88ZM74.6371 27.58C76.4464 27.58 77.8264 28.017 78.7771 28.891C79.7431 29.7497 80.2261 31.053 80.2261 32.801V40H77.5121V38.505C77.1594 39.0417 76.6534 39.4557 75.9941 39.747C75.3501 40.023 74.5681 40.161 73.6481 40.161C72.7281 40.161 71.9231 40.0077 71.2331 39.701C70.5431 39.379 70.0064 38.942 69.6231 38.39C69.2551 37.8227 69.0711 37.1863 69.0711 36.481C69.0711 35.377 69.4774 34.4953 70.2901 33.836C71.1181 33.1613 72.4137 32.824 74.1771 32.824H77.3511V32.64C77.3511 31.7813 77.0904 31.122 76.5691 30.662C76.0631 30.202 75.3041 29.972 74.2921 29.972C73.6021 29.972 72.9197 30.0793 72.2451 30.294C71.5857 30.5087 71.0261 30.8077 70.5661 31.191L69.4391 29.098C70.0831 28.6073 70.8574 28.2317 71.7621 27.971C72.6667 27.7103 73.6251 27.58 74.6371 27.58ZM74.2461 38.068C74.9667 38.068 75.6031 37.907 76.1551 37.585C76.7224 37.2477 77.1211 36.7723 77.3511 36.159V34.733H74.3841C72.7281 34.733 71.9001 35.2773 71.9001 36.366C71.9001 36.8873 72.1071 37.3013 72.5211 37.608C72.9351 37.9147 73.5101 38.068 74.2461 38.068ZM86.6528 29.512C87.4808 28.224 88.9375 27.58 91.0228 27.58V30.317C90.7775 30.271 90.5551 30.248 90.3558 30.248C89.2365 30.248 88.3625 30.5777 87.7338 31.237C87.1051 31.881 86.7908 32.8163 86.7908 34.043V40H83.9158V27.718H86.6528V29.512ZM100.431 27.58C101.979 27.58 103.221 28.0323 104.157 28.937C105.092 29.8417 105.56 31.1833 105.56 32.962V40H102.685V33.33C102.685 32.2567 102.432 31.4517 101.926 30.915C101.42 30.363 100.699 30.087 99.7637 30.087C98.7057 30.087 97.87 30.409 97.2567 31.053C96.6434 31.6817 96.3367 32.594 96.3367 33.79V40H93.4617V27.718H96.1987V29.305C96.674 28.7377 97.272 28.3083 97.9927 28.017C98.7134 27.7257 99.526 27.58 100.431 27.58ZM131.065 27.58C132.614 27.58 133.841 28.0323 134.745 28.937C135.65 29.8263 136.102 31.168 136.102 32.962V40H133.227V33.33C133.227 32.2567 132.99 31.4517 132.514 30.915C132.039 30.363 131.357 30.087 130.467 30.087C129.501 30.087 128.727 30.409 128.144 31.053C127.562 31.6817 127.27 32.5863 127.27 33.767V40H124.395V33.33C124.395 32.2567 124.158 31.4517 123.682 30.915C123.207 30.363 122.525 30.087 121.635 30.087C120.654 30.087 119.872 30.4013 119.289 31.03C118.722 31.6587 118.438 32.571 118.438 33.767V40H115.563V27.718H118.3V29.282C118.76 28.73 119.335 28.3083 120.025 28.017C120.715 27.7257 121.482 27.58 122.325 27.58C123.245 27.58 124.058 27.7563 124.763 28.109C125.484 28.4463 126.051 28.9523 126.465 29.627C126.971 28.983 127.623 28.4847 128.42 28.132C129.218 27.764 130.099 27.58 131.065 27.58ZM145.408 40.161C144.166 40.161 143.047 39.8927 142.05 39.356C141.054 38.8193 140.272 38.0757 139.704 37.125C139.152 36.159 138.876 35.0703 138.876 33.859C138.876 32.6477 139.152 31.5667 139.704 30.616C140.272 29.6653 141.054 28.9217 142.05 28.385C143.047 27.8483 144.166 27.58 145.408 27.58C146.666 27.58 147.793 27.8483 148.789 28.385C149.786 28.9217 150.56 29.6653 151.112 30.616C151.68 31.5667 151.963 32.6477 151.963 33.859C151.963 35.0703 151.68 36.159 151.112 37.125C150.56 38.0757 149.786 38.8193 148.789 39.356C147.793 39.8927 146.666 40.161 145.408 40.161ZM145.408 37.7C146.466 37.7 147.34 37.3473 148.03 36.642C148.72 35.9367 149.065 35.009 149.065 33.859C149.065 32.709 148.72 31.7813 148.03 31.076C147.34 30.3707 146.466 30.018 145.408 30.018C144.35 30.018 143.476 30.3707 142.786 31.076C142.112 31.7813 141.774 32.709 141.774 33.859C141.774 35.009 142.112 35.9367 142.786 36.642C143.476 37.3473 144.35 37.7 145.408 37.7ZM157.45 29.512C158.278 28.224 159.734 27.58 161.82 27.58V30.317C161.574 30.271 161.352 30.248 161.153 30.248C160.033 30.248 159.159 30.5777 158.531 31.237C157.902 31.881 157.588 32.8163 157.588 34.043V40H154.713V27.718H157.45V29.512ZM175.692 33.928C175.692 34.1273 175.677 34.411 175.646 34.779H166.009C166.178 35.6837 166.615 36.4043 167.32 36.941C168.041 37.4623 168.93 37.723 169.988 37.723C171.338 37.723 172.449 37.2783 173.323 36.389L174.864 38.16C174.312 38.8193 173.615 39.3177 172.771 39.655C171.928 39.9923 170.977 40.161 169.919 40.161C168.57 40.161 167.382 39.8927 166.354 39.356C165.327 38.8193 164.53 38.0757 163.962 37.125C163.41 36.159 163.134 35.0703 163.134 33.859C163.134 32.663 163.403 31.5897 163.939 30.639C164.491 29.673 165.25 28.9217 166.216 28.385C167.182 27.8483 168.271 27.58 169.482 27.58C170.678 27.58 171.744 27.8483 172.679 28.385C173.63 28.9063 174.366 29.65 174.887 30.616C175.424 31.5667 175.692 32.6707 175.692 33.928ZM169.482 29.88C168.562 29.88 167.78 30.156 167.136 30.708C166.508 31.2447 166.124 31.9653 165.986 32.87H172.955C172.833 31.9807 172.457 31.26 171.828 30.708C171.2 30.156 170.418 29.88 169.482 29.88Z" fill="white"/>
</svg>
