<svg width="231" height="48" viewBox="0 0 231 48" fill="none" xmlns="http://www.w3.org/2000/svg">
<path d="M166.632 28.56C166.632 29.792 166.16 30.84 165.216 31.704C164.272 32.552 162.888 33.024 161.064 33.12V35.88H159.864V33.144C158.696 33.08 157.592 32.856 156.552 32.472C155.528 32.072 154.72 31.568 154.128 30.96L154.824 29.592C155.384 30.136 156.112 30.592 157.008 30.96C157.92 31.328 158.872 31.544 159.864 31.608V25.296C158.76 25.024 157.84 24.736 157.104 24.432C156.368 24.112 155.752 23.656 155.256 23.064C154.776 22.456 154.536 21.656 154.536 20.664C154.536 19.432 154.984 18.4 155.88 17.568C156.776 16.72 158.104 16.224 159.864 16.08V13.32H161.064V16.056C161.976 16.088 162.856 16.24 163.704 16.512C164.568 16.768 165.312 17.112 165.936 17.544L165.336 18.96C164.68 18.544 163.984 18.216 163.248 17.976C162.512 17.736 161.784 17.6 161.064 17.568V23.928C162.248 24.216 163.216 24.512 163.968 24.816C164.72 25.104 165.352 25.552 165.864 26.16C166.376 26.768 166.632 27.568 166.632 28.56ZM156.288 20.616C156.288 21.448 156.592 22.08 157.2 22.512C157.824 22.944 158.712 23.312 159.864 23.616V17.616C158.68 17.712 157.784 18.04 157.176 18.6C156.584 19.144 156.288 19.816 156.288 20.616ZM161.064 31.608C162.328 31.512 163.28 31.2 163.92 30.672C164.56 30.144 164.88 29.472 164.88 28.656C164.88 27.792 164.552 27.144 163.896 26.712C163.24 26.28 162.296 25.912 161.064 25.608V31.608ZM173.43 23.088C175.862 23.088 177.63 23.528 178.734 24.408C179.854 25.272 180.414 26.488 180.414 28.056C180.414 29.032 180.182 29.904 179.718 30.672C179.27 31.44 178.59 32.048 177.678 32.496C176.766 32.928 175.646 33.144 174.318 33.144C173.118 33.144 171.974 32.952 170.886 32.568C169.814 32.168 168.95 31.64 168.294 30.984L169.134 29.616C169.694 30.192 170.43 30.664 171.342 31.032C172.254 31.384 173.238 31.56 174.294 31.56C175.686 31.56 176.758 31.248 177.51 30.624C178.278 30 178.662 29.168 178.662 28.128C178.662 26.976 178.23 26.104 177.366 25.512C176.518 24.92 175.078 24.624 173.046 24.624H169.47L170.334 16.2H179.526V17.736H171.846L171.27 23.088H173.43ZM187.839 16.056C190.063 16.056 191.767 16.792 192.951 18.264C194.135 19.72 194.727 21.784 194.727 24.456C194.727 26.328 194.407 27.912 193.767 29.208C193.127 30.504 192.231 31.488 191.079 32.16C189.927 32.816 188.583 33.144 187.047 33.144C185.383 33.144 184.055 32.84 183.063 32.232L183.759 30.84C184.559 31.368 185.647 31.632 187.023 31.632C188.879 31.632 190.335 31.048 191.391 29.88C192.447 28.696 192.975 26.984 192.975 24.744C192.975 24.328 192.951 23.872 192.903 23.376C192.487 24.288 191.823 25 190.911 25.512C189.999 26.008 188.951 26.256 187.767 26.256C186.663 26.256 185.679 26.048 184.815 25.632C183.967 25.216 183.303 24.632 182.823 23.88C182.343 23.112 182.103 22.224 182.103 21.216C182.103 20.192 182.351 19.288 182.847 18.504C183.343 17.72 184.023 17.12 184.887 16.704C185.767 16.272 186.751 16.056 187.839 16.056ZM188.031 24.792C188.879 24.792 189.623 24.632 190.263 24.312C190.919 23.992 191.431 23.552 191.799 22.992C192.167 22.432 192.351 21.808 192.351 21.12C192.351 20.48 192.175 19.888 191.823 19.344C191.487 18.8 190.983 18.36 190.311 18.024C189.639 17.688 188.839 17.52 187.911 17.52C186.695 17.52 185.703 17.856 184.935 18.528C184.183 19.184 183.807 20.064 183.807 21.168C183.807 22.272 184.183 23.152 184.935 23.808C185.703 24.464 186.735 24.792 188.031 24.792ZM198.271 33.12C197.919 33.12 197.615 32.992 197.359 32.736C197.119 32.48 196.999 32.168 196.999 31.8C196.999 31.432 197.119 31.128 197.359 30.888C197.615 30.632 197.919 30.504 198.271 30.504C198.623 30.504 198.927 30.632 199.183 30.888C199.439 31.128 199.567 31.432 199.567 31.8C199.567 32.168 199.439 32.48 199.183 32.736C198.927 32.992 198.623 33.12 198.271 33.12ZM207.293 16.056C209.517 16.056 211.221 16.792 212.405 18.264C213.589 19.72 214.181 21.784 214.181 24.456C214.181 26.328 213.861 27.912 213.221 29.208C212.581 30.504 211.685 31.488 210.533 32.16C209.381 32.816 208.037 33.144 206.501 33.144C204.837 33.144 203.509 32.84 202.517 32.232L203.213 30.84C204.013 31.368 205.101 31.632 206.477 31.632C208.333 31.632 209.789 31.048 210.845 29.88C211.901 28.696 212.429 26.984 212.429 24.744C212.429 24.328 212.405 23.872 212.357 23.376C211.941 24.288 211.277 25 210.365 25.512C209.453 26.008 208.405 26.256 207.221 26.256C206.117 26.256 205.133 26.048 204.269 25.632C203.421 25.216 202.757 24.632 202.277 23.88C201.797 23.112 201.557 22.224 201.557 21.216C201.557 20.192 201.805 19.288 202.301 18.504C202.797 17.72 203.477 17.12 204.34 16.704C205.221 16.272 206.205 16.056 207.293 16.056ZM207.485 24.792C208.333 24.792 209.077 24.632 209.717 24.312C210.373 23.992 210.885 23.552 211.253 22.992C211.621 22.432 211.805 21.808 211.805 21.12C211.805 20.48 211.629 19.888 211.277 19.344C210.941 18.8 210.437 18.36 209.765 18.024C209.093 17.688 208.293 17.52 207.365 17.52C206.149 17.52 205.157 17.856 204.389 18.528C203.637 19.184 203.261 20.064 203.261 21.168C203.261 22.272 203.637 23.152 204.389 23.808C205.157 24.464 206.189 24.792 207.485 24.792ZM221.918 16.056C224.142 16.056 225.846 16.792 227.03 18.264C228.214 19.72 228.806 21.784 228.806 24.456C228.806 26.328 228.486 27.912 227.846 29.208C227.206 30.504 226.31 31.488 225.158 32.16C224.006 32.816 222.662 33.144 221.126 33.144C219.462 33.144 218.134 32.84 217.142 32.232L217.838 30.84C218.638 31.368 219.726 31.632 221.102 31.632C222.958 31.632 224.414 31.048 225.47 29.88C226.526 28.696 227.054 26.984 227.054 24.744C227.054 24.328 227.03 23.872 226.982 23.376C226.566 24.288 225.902 25 224.99 25.512C224.078 26.008 223.03 26.256 221.846 26.256C220.742 26.256 219.758 26.048 218.894 25.632C218.046 25.216 217.382 24.632 216.902 23.88C216.422 23.112 216.182 22.224 216.182 21.216C216.182 20.192 216.43 19.288 216.926 18.504C217.422 17.72 218.102 17.12 218.965 16.704C219.846 16.272 220.83 16.056 221.918 16.056ZM222.11 24.792C222.958 24.792 223.702 24.632 224.342 24.312C224.998 23.992 225.51 23.552 225.878 22.992C226.246 22.432 226.43 21.808 226.43 21.12C226.43 20.48 226.254 19.888 225.902 19.344C225.566 18.8 225.062 18.36 224.39 18.024C223.718 17.688 222.918 17.52 221.99 17.52C220.774 17.52 219.782 17.856 219.014 18.528C218.262 19.184 217.886 20.064 217.886 21.168C217.886 22.272 218.262 23.152 219.014 23.808C219.782 24.464 220.814 24.792 222.11 24.792Z" fill="#C4C4C4"/>
<path d="M153 25.44H230.053V26.64H153V25.44Z" fill="#C4C4C4"/>
<path d="M24.4 29.8C24.4 31.9867 23.6 33.8667 22 35.44C20.4 36.9867 18.0933 37.9467 15.08 38.32V42.8H11.08V38.44C9.10667 38.3333 7.22667 37.9867 5.44 37.4C3.65333 36.8133 2.21333 36.0933 1.12 35.24L3.32 30.36C4.33333 31.1067 5.52 31.7333 6.88 32.24C8.24 32.7467 9.64 33.0667 11.08 33.2V26.52C9.18667 26.0667 7.58667 25.56 6.28 25C4.97333 24.44 3.88 23.6267 3 22.56C2.12 21.4667 1.68 20.0267 1.68 18.24C1.68 16.0267 2.48 14.1333 4.08 12.56C5.70667 10.96 8.04 9.98666 11.08 9.64V5.2H15.08V9.56C18.36 9.82667 21.0667 10.64 23.2 12L21.2 16.92C19.2 15.7733 17.16 15.08 15.08 14.84V21.64C16.9467 22.0667 18.52 22.56 19.8 23.12C21.1067 23.6533 22.2 24.4667 23.08 25.56C23.96 26.6267 24.4 28.04 24.4 29.8ZM8.12 17.92C8.12 18.5867 8.37333 19.1333 8.88 19.56C9.38667 19.9867 10.12 20.3467 11.08 20.64V14.96C10.0667 15.2 9.32 15.5867 8.84 16.12C8.36 16.6267 8.12 17.2267 8.12 17.92ZM15.08 33.04C16.04 32.8267 16.76 32.48 17.24 32C17.72 31.52 17.96 30.9467 17.96 30.28C17.96 29.6133 17.7067 29.0667 17.2 28.64C16.72 28.2133 16.0133 27.84 15.08 27.52V33.04ZM39.5916 21.4C42.0449 21.8 43.9249 22.72 45.2316 24.16C46.5382 25.5733 47.1916 27.3333 47.1916 29.44C47.1916 31.0667 46.7649 32.5733 45.9116 33.96C45.0582 35.32 43.7516 36.4133 41.9916 37.24C40.2582 38.0667 38.1249 38.48 35.5916 38.48C33.6182 38.48 31.6716 38.2267 29.7516 37.72C27.8582 37.1867 26.2449 36.44 24.9116 35.48L27.4316 30.52C28.4982 31.32 29.7249 31.9467 31.1116 32.4C32.5249 32.8267 33.9649 33.04 35.4316 33.04C37.0582 33.04 38.3382 32.7333 39.2716 32.12C40.2049 31.48 40.6716 30.5867 40.6716 29.44C40.6716 27.1467 38.9249 26 35.4316 26H32.4716V21.72L38.2316 15.2H26.3116V10H45.9116V14.2L39.5916 21.4ZM75.4234 32.12H70.8634V38H64.5434V32.12H49.4634V27.76L62.6634 10H69.4634L57.2234 26.84H64.7434V21.6H70.8634V26.84H75.4234V32.12ZM81.4228 38.32C80.3295 38.32 79.4095 37.9467 78.6628 37.2C77.9161 36.4533 77.5428 35.52 77.5428 34.4C77.5428 33.2533 77.9161 32.3333 78.6628 31.64C79.4095 30.92 80.3295 30.56 81.4228 30.56C82.5161 30.56 83.4361 30.92 84.1828 31.64C84.9295 32.3333 85.3028 33.2533 85.3028 34.4C85.3028 35.52 84.9295 36.4533 84.1828 37.2C83.4361 37.9467 82.5161 38.32 81.4228 38.32ZM97.6516 9.52C101.572 9.52 104.638 10.72 106.852 13.12C109.065 15.4933 110.172 18.92 110.172 23.4C110.172 26.5733 109.572 29.2933 108.372 31.56C107.198 33.8267 105.532 35.5467 103.372 36.72C101.212 37.8933 98.7182 38.48 95.8916 38.48C94.3982 38.48 92.9716 38.32 91.6116 38C90.2516 37.6533 89.0916 37.1733 88.1316 36.56L90.5316 31.8C91.8916 32.7333 93.6382 33.2 95.7716 33.2C98.1449 33.2 100.025 32.5067 101.412 31.12C102.798 29.7067 103.545 27.68 103.652 25.04C101.972 26.72 99.6516 27.56 96.6916 27.56C94.9049 27.56 93.2782 27.2 91.8116 26.48C90.3449 25.76 89.1849 24.7467 88.3316 23.44C87.4782 22.1067 87.0516 20.5733 87.0516 18.84C87.0516 16.9733 87.5182 15.3333 88.4516 13.92C89.3849 12.5067 90.6516 11.4267 92.2516 10.68C93.8782 9.90667 95.6782 9.52 97.6516 9.52ZM98.1316 22.72C99.5449 22.72 100.692 22.3333 101.572 21.56C102.478 20.76 102.932 19.7467 102.932 18.52C102.932 17.2933 102.492 16.2933 101.612 15.52C100.758 14.7467 99.5716 14.36 98.0516 14.36C96.6649 14.36 95.5316 14.7333 94.6516 15.48C93.7982 16.2267 93.3716 17.24 93.3716 18.52C93.3716 19.8 93.7982 20.8267 94.6516 21.6C95.5316 22.3467 96.6916 22.72 98.1316 22.72ZM122.72 9.52C126.64 9.52 129.707 10.72 131.92 13.12C134.134 15.4933 135.24 18.92 135.24 23.4C135.24 26.5733 134.64 29.2933 133.44 31.56C132.267 33.8267 130.6 35.5467 128.44 36.72C126.28 37.8933 123.787 38.48 120.96 38.48C119.467 38.48 118.04 38.32 116.68 38C115.32 37.6533 114.16 37.1733 113.2 36.56L115.6 31.8C116.96 32.7333 118.707 33.2 120.84 33.2C123.214 33.2 125.094 32.5067 126.48 31.12C127.867 29.7067 128.614 27.68 128.72 25.04C127.04 26.72 124.72 27.56 121.76 27.56C119.974 27.56 118.347 27.2 116.88 26.48C115.414 25.76 114.254 24.7467 113.4 23.44C112.547 22.1067 112.12 20.5733 112.12 18.84C112.12 16.9733 112.587 15.3333 113.52 13.92C114.454 12.5067 115.72 11.4267 117.32 10.68C118.947 9.90667 120.747 9.52 122.72 9.52ZM123.2 22.72C124.614 22.72 125.76 22.3333 126.64 21.56C127.547 20.76 128 19.7467 128 18.52C128 17.2933 127.56 16.2933 126.68 15.52C125.827 14.7467 124.64 14.36 123.12 14.36C121.734 14.36 120.6 14.7333 119.72 15.48C118.867 16.2267 118.44 17.24 118.44 18.52C118.44 19.8 118.867 20.8267 119.72 21.6C120.6 22.3467 121.76 22.72 123.2 22.72Z" fill="#212121"/>
</svg>
